<svg width="637" height="219" viewBox="0 0 637 219" fill="none" xmlns="http://www.w3.org/2000/svg">
<path fill-rule="evenodd" clip-rule="evenodd" d="M1.40002 5.8999H89.6V94.0999L1.40002 5.8999Z" fill="white"/>
<path fill-rule="evenodd" clip-rule="evenodd" d="M109.9 127.6L1.40002 18.8999V56.0999L72.9 127.7L109.9 127.6Z" fill="white"/>
<path d="M626.6 76.5999H616.5V42.5999H578V76.5999H566.5V5.89992H578V32.8999H616.4V5.89992H628V76.5999H626.6ZM534.3 20.1999L524.8 24.2999L524.4 22.7999C524.1 21.5999 523.5 20.3999 522.7 19.3999C521.9 18.3999 520.9 17.4999 519.6 16.6999C518.3 15.8999 516.9 15.2999 515.5 14.8999C514.1 14.4999 512.6 14.2999 511.1 14.2999C507.4 14.2999 504.6 15.5999 502.7 17.3999C501.5 18.5999 500.7 19.9999 500.3 21.5999C499.9 23.0999 500 24.7999 500.5 26.2999C501.2 28.4999 502.9 30.4999 505.7 31.8999C507.4 32.4999 509.2 32.9999 511.1 33.5999C519.7 36.1999 529.2 38.9999 533.5 46.0999C536.2 50.5999 537 55.5999 536.1 60.2999C535.1 65.0999 532.4 69.5999 528.1 72.9999L528 73.0999C523.3 76.0999 517.9 77.5999 512.3 77.7999C506.8 77.9999 501.2 76.6999 496.3 73.9999L496.2 73.8999C493.5 71.9999 491.6 69.9999 490.2 67.6999C488.8 65.3999 487.9 62.8999 487 60.0999L486.7 59.0999L497.9 53.8999V55.9999C497.9 57.7999 498.2 59.3999 498.9 60.7999C499.6 62.1999 500.6 63.5999 502 64.6999C502.8 65.3999 503.7 65.9999 504.7 66.4999C507.6 67.9999 510.9 68.4999 514.1 67.9999C517.2 67.5999 520.1 66.1999 522.1 63.8999C522.6 63.2999 523.1 62.5999 523.5 61.7999C524.8 59.1999 525.2 56.5999 524.5 54.1999C523.9 51.9999 522.3 49.9999 519.8 48.4999C519.4 48.2999 518.8 47.9999 518 47.5999C517.2 47.1999 516.2 46.7999 515 46.2999C513.8 45.8999 512.5 45.4999 511.1 45.0999C504 42.9999 497.1 40.8999 492.2 34.8999C489.2 31.2999 488.1 26.9999 488.5 22.8999C488.9 18.4999 491 14.1999 494.3 10.7999C498.4 6.69993 504.5 4.69992 510.8 4.49992C517.4 4.29992 524.1 6.19993 528.8 9.79993C530.3 10.9999 531.6 12.2999 532.7 13.7999C533.8 15.2999 534.6 16.8999 535.2 18.5999L535.6 19.6999L534.3 20.1999ZM457 76.5999H415.2V5.89992H458.4V15.7999H426.9V33.3999H458.4V42.9999H426.9V66.6999H458.4V76.5999H457ZM383.4 76.5999H372.4L364.8 29.6999L342.7 76.7999L338.3 76.6999L316.7 29.3999L308.4 76.5999H296.3C301.4 52.8999 306.5 29.0999 311.6 5.29993H316.8L340.6 57.2999L365.4 5.29993H370.6C375.4 28.9999 380.3 52.7999 385.1 76.5999H383.4ZM247.3 46.6999L236.9 22.0999L226.8 46.6999H247.3ZM272.1 76.5999H260.7L251.2 55.3999H223.4L213.8 76.5999H201.1C212.4 52.7999 223.7 29.0999 235 5.29993H239.2C250.8 29.0999 262.5 52.7999 274.2 76.5999H272.1ZM150.7 15.5999H137.9V35.8999H153.1C157.3 35.8999 160 33.5999 161.2 30.5999C161.7 29.2999 161.9 27.8999 161.9 26.3999C161.9 24.9999 161.6 23.4999 161 22.0999C159.5 18.4999 156.1 15.5999 150.7 15.5999ZM176.6 76.5999H163.8L137.9 44.3999V76.5999H125.7V5.89992L154.7 6.19992C157.5 6.19992 160.2 6.69992 162.5 7.69992C164.9 8.69992 167 10.1999 168.8 12.1999C169 12.4999 169.3 12.6999 169.5 12.9999C172.8 16.8999 174.4 21.6999 174.2 26.3999C174 31.0999 172.1 35.7999 168.2 39.3999C168 39.5999 167.8 39.7999 167.5 39.9999H167.4C161.4 44.4999 157.8 44.3999 151.7 44.2999H151.5L179.4 76.5999H176.6Z" fill="white"/>
<path fill-rule="evenodd" clip-rule="evenodd" d="M623.6 123.3C623.8 123.4 624 123.5 624.2 123.6C624.4 123.7 624.6 123.9 624.7 124.1C624.8 124.3 624.9 124.5 625 124.7C625.1 124.9 625.1 125.2 625.1 125.4C625.1 125.7 625.1 125.9 625 126.2C624.9 126.4 624.8 126.7 624.6 126.9C624.4 127.1 624.2 127.3 623.9 127.4C623.6 127.5 623.4 127.5 623 127.5C622.7 127.5 622.4 127.4 622.1 127.3C621.8 127.2 621.6 127 621.4 126.8C621.2 126.6 621.1 126.4 621 126.1C620.9 125.8 620.9 125.6 620.9 125.3C620.9 124.8 621 124.5 621.2 124.1C621.4 123.8 621.7 123.5 622.2 123.3H622.3C622.5 123.3 622.7 123.2 622.9 123.2H623.2C623.3 123.2 623.4 123.2 623.5 123.2H623.6V123.3ZM618.6 99.3C618.3 99.2 618 99.1 617.6 99C617.3 98.9 616.9 98.9 616.6 98.8H611.8V109H617.8C618.4 108.8 618.9 108.6 619.3 108.3C619.8 108 620.2 107.6 620.5 107.1C620.8 106.6 621.1 106.1 621.3 105.6C621.5 105.1 621.6 104.5 621.6 103.9C621.6 103.4 621.5 102.9 621.4 102.5C621.3 102.1 621.1 101.6 620.9 101.2C620.7 100.8 620.4 100.5 620 100.2C619.6 99.7 619.1 99.5 618.6 99.3ZM626.2 102.9V104C626.2 105.2 626 106.2 625.6 107.2C625.2 108.2 624.7 109.1 623.9 109.9C623.2 110.7 622.3 111.4 621.3 111.9C620.3 112.4 619.2 112.7 618 112.8H611.7V127.2H607.1V94.7C610.6 94.7 614.3 94.7 617.8 94.8C619 94.9 620 95.2 621 95.6C622 96 622.9 96.6 623.7 97.3C624.5 98 625.1 98.9 625.5 99.8C626 100.8 626.2 101.8 626.2 102.9ZM570.9 99.2C570.7 99.1 570.5 99.1 570.3 99C570.1 98.9 569.9 98.9 569.7 98.8C569.5 98.8 569.3 98.7 569.1 98.7C568.9 98.7 568.8 98.7 568.6 98.7H563V108.7H569.7C570.3 108.7 570.9 108.6 571.4 108.4C571.9 108.2 572.3 107.9 572.6 107.4C573 107 573.2 106.5 573.4 105.9C573.6 105.4 573.7 104.8 573.7 104.1C573.7 103.6 573.6 103 573.5 102.5C573.4 102 573.2 101.5 573 101.1C572.8 100.7 572.5 100.3 572.1 100C571.8 99.6 571.4 99.4 570.9 99.2ZM579.8 127.2H574.5L563 111.7V127.2H558.3V94.7L570.4 94.8C572.8 94.8 574.7 95.7 576.2 97.5C577 98.4 577.5 99.4 577.9 100.4C578.3 101.4 578.5 102.5 578.5 103.7C578.5 104.3 578.4 104.9 578.3 105.5C578.2 106.1 578 106.6 577.8 107.2C577.6 107.7 577.3 108.3 576.9 108.8C576.5 109.3 576.1 109.8 575.6 110.2C575.1 110.6 574.5 111 573.9 111.3C573.3 111.6 572.7 111.9 572 112.1H571.9H568.4L580.3 127.2H579.8ZM531.9 110.6C531.9 108.8 531.6 107.2 530.9 105.7C530.3 104.2 529.3 102.8 528 101.6C526.7 100.4 525.3 99.4 523.8 98.8C522.3 98.2 520.6 97.9 518.8 97.9C517 97.9 515.4 98.2 513.9 98.9C512.4 99.5 511 100.5 509.8 101.8C508.6 103.1 507.6 104.5 507 106C506.4 107.5 506.1 109.2 506.1 111C506.1 112.8 506.4 114.4 507.1 115.9C507.7 117.4 508.7 118.8 510 120C511.3 121.2 512.7 122.1 514.2 122.8C515.7 123.4 517.4 123.7 519.2 123.7C521 123.7 522.6 123.4 524.1 122.7C525.6 122.1 527 121.1 528.2 119.8C529.4 118.5 530.4 117.1 531 115.6C531.5 114.1 531.9 112.4 531.9 110.6ZM536.5 110.7C536.5 115.5 534.8 119.6 531.4 123C529.7 124.7 527.8 126 525.8 126.8C523.8 127.6 521.5 128.1 519.1 128.1C516.7 128.1 514.4 127.7 512.3 126.9C510.2 126.1 508.3 124.9 506.6 123.2C504.9 121.6 503.5 119.8 502.7 117.7C501.8 115.7 501.4 113.5 501.4 111.1C501.4 106.3 503.1 102.2 506.5 98.8C508.2 97.1 510.1 95.8 512.1 95C514.1 94.2 516.4 93.7 518.8 93.7C521.2 93.7 523.5 94.1 525.6 94.9C527.7 95.7 529.6 96.9 531.3 98.6C533 100.2 534.4 102 535.2 104.1C536.1 106.1 536.5 108.3 536.5 110.7ZM481.7 125.7C480.2 126.3 478.7 126.8 477.1 127.2C476.3 127.4 475.5 127.5 474.7 127.6C473.9 127.7 473.1 127.7 472.3 127.7C471.2 127.7 470.1 127.6 469 127.4C467.9 127.2 466.9 126.9 465.9 126.6C464.9 126.2 463.9 125.8 463 125.2C462.1 124.6 461.2 124 460.3 123.2C458.6 121.4 457.3 119.5 456.4 117.5C455.5 115.4 455.1 113.2 455.1 110.8C455.1 109.3 455.3 107.8 455.6 106.5C455.9 105.2 456.5 103.9 457.1 102.8C457.8 101.7 458.4 100.7 459.1 99.9C459.8 99 460.4 98.3 461.1 97.7C461.7 97.1 462.4 96.6 463 96.2C463.6 95.8 464.2 95.4 464.8 95.2C465.4 95 465.9 94.8 466.4 94.6C466.9 94.4 467.3 94.3 467.7 94.2C468.4 94 469.2 93.9 470 93.8C470.8 93.7 471.5 93.7 472.3 93.7C472.8 93.7 473.4 93.7 474 93.8C474.6 93.8 475.1 93.9 475.7 94C476.9 94.2 478.1 94.5 479.3 94.8C480.1 95.1 481.1 95.6 481.9 96V101.1L481.3 100.7C480 99.8 478.6 99.1 477.2 98.6C475.8 98.1 474.3 97.9 472.7 97.9C470.6 97.9 468.6 98.3 466.8 99.2C465.9 99.6 465.1 100.2 464.3 100.8C463.5 101.4 462.8 102.2 462.1 103.1C461.7 103.7 461.4 104.2 461.1 104.8C460.8 105.4 460.6 106 460.4 106.7C460.2 107.4 460 108 459.9 108.7C459.8 109.4 459.7 110 459.7 110.7C459.7 111.9 459.8 113 460.1 114.2C460.4 115.3 460.8 116.4 461.4 117.4C462 118.4 462.7 119.3 463.5 120.1C464.3 120.9 465.2 121.5 466.3 122C467.3 122.5 468.4 122.9 469.5 123.2C470.6 123.5 471.6 123.6 472.7 123.6C475 123.6 477.1 123 478.9 121.9L481.7 120.1V125.4V125.7Z" fill="white"/>
</svg>
